<svg xmlns="http://www.w3.org/2000/svg" width="95" height="89" fill="none"><path fill="#E6E3F6" d="M51.444 69c0 1.062-.417 2.079-1.16 2.83A3.94 3.94 0 0 1 47.487 73a3.94 3.94 0 0 1-2.799-1.17 4.02 4.02 0 0 1-1.16-2.83c0-1.06.418-2.077 1.16-2.828a3.94 3.94 0 0 1 2.799-1.171c1.05 0 2.056.421 2.799 1.171a4.02 4.02 0 0 1 1.159 2.829m-6.927-12.999c0 .796.313 1.559.87 2.122a2.95 2.95 0 0 0 2.099.878c.787 0 1.542-.316 2.099-.878s.87-1.326.87-2.122V30.002c0-.795-.313-1.558-.87-2.12a2.95 2.95 0 0 0-2.1-.88c-.786 0-1.541.317-2.098.88a3.02 3.02 0 0 0-.87 2.12zM37.955 5.683c4.14-7.575 14.922-7.58 19.062 0l36.612 66.998C97.634 80.012 92.386 89 84.102 89h-73.2C2.618 89-2.635 80.016 1.37 72.685zm13.861 2.9a5 5 0 0 0-1.817-1.888 4.91 4.91 0 0 0-5.027 0 5 5 0 0 0-1.816 1.888L6.568 75.585a5.04 5.04 0 0 0 .071 4.958 5 5 0 0 0 1.809 1.8c.747.431 1.593.658 2.454.657h73.196c.86 0 1.705-.227 2.452-.658a5 5 0 0 0 1.807-1.8 5.04 5.04 0 0 0 .07-4.957z"/></svg>