<svg xmlns="http://www.w3.org/2000/svg" width="13" height="14" fill="none"><path fill="#000" d="M.91 2.74a.4.4 0 0 0 .273-.085L3.461.996c.115-.078.177-.183.177-.294 0-.138-.069-.25-.184-.355C3.196.125 2.733 0 2.325 0c-.25-.001-.5.045-.733.137a1.9 1.9 0 0 0-.621.4 1.8 1.8 0 0 0-.414.599 1.8 1.8 0 0 0-.142.706c0 .243.04.485.108.636a.43.43 0 0 0 .388.263m11.172 0c.17 0 .306-.104.388-.262.074-.144.115-.393.115-.636C12.585.82 11.735 0 10.668 0c-.401 0-.863.125-1.122.347-.116.105-.184.217-.184.355 0 .11.062.216.17.294l2.278 1.66c.095.071.17.085.272.085M.81 13.408a.53.53 0 0 0 .379.152.54.54 0 0 0 .376-.158l1.074-1.03A6.66 6.66 0 0 0 6.5 13.598c1.448 0 2.78-.46 3.862-1.226l1.074 1.03c.211.209.544.209.748.006a.486.486 0 0 0-.007-.709l-1.033-.99A6.12 6.12 0 0 0 13 7.33c0-3.462-2.91-6.275-6.5-6.275S0 3.868 0 7.33a6.14 6.14 0 0 0 1.85 4.38l-1.034.99a.49.49 0 0 0-.007.707m5.691-.93c-2.95 0-5.344-2.302-5.344-5.147 0-2.839 2.393-5.147 5.344-5.147 2.944 0 5.33 2.308 5.33 5.147 0 2.845-2.386 5.146-5.33 5.146M3.406 8.05h3.087c.265 0 .476-.197.476-.452V3.626a.44.44 0 0 0-.138-.326.47.47 0 0 0-.338-.133.46.46 0 0 0-.47.459V7.14H3.407a.46.46 0 0 0-.475.458c0 .256.203.453.475.453"/></svg>