<svg width="20" height="20" viewBox="0 0 20 20" fill="none" xmlns="http://www.w3.org/2000/svg">
<g clip-path="url(#clip0_1442_2793)">
<path d="M14.9497 14.9502C13.5252 16.036 11.7906 16.6375 9.99967 16.6668C4.16634 16.6668 0.833008 10.0002 0.833008 10.0002C1.86958 8.06841 3.30729 6.38067 5.04967 5.05016M8.24967 3.5335C8.82328 3.39923 9.41056 3.33211 9.99967 3.3335C15.833 3.3335 19.1663 10.0002 19.1663 10.0002C18.6605 10.9465 18.0572 11.8374 17.3663 12.6585M11.7663 11.7668C11.5375 12.0125 11.2615 12.2095 10.9548 12.3461C10.6481 12.4827 10.3171 12.5562 9.98142 12.5621C9.64574 12.5681 9.31231 12.5063 9.00102 12.3806C8.68972 12.2548 8.40694 12.0677 8.16955 11.8303C7.93215 11.5929 7.745 11.3101 7.61926 10.9988C7.49353 10.6875 7.43178 10.3541 7.4377 10.0184C7.44362 9.68274 7.5171 9.3517 7.65374 9.04503C7.79038 8.73837 7.98738 8.46237 8.23301 8.2335M0.833008 0.833496L19.1663 19.1668" stroke="#8D8C8C" stroke-width="2" stroke-linecap="round" stroke-linejoin="round"/>
</g>
<defs>
<clipPath id="clip0_1442_2793">
<rect width="20" height="20" fill="white"/>
</clipPath>
</defs>
</svg>
