<svg xmlns="http://www.w3.org/2000/svg" width="20" height="20" fill="none"><g clip-path="url(#a)"><path stroke="#8D8C8C" stroke-linecap="round" stroke-linejoin="round" stroke-width="2" d="M14.95 14.95A8.4 8.4 0 0 1 10 16.667C4.166 16.667.833 10 .833 10A15.4 15.4 0 0 1 5.05 5.05m3.2-1.516a7.6 7.6 0 0 1 1.75-.2c5.833 0 9.166 6.666 9.166 6.666a15.4 15.4 0 0 1-1.8 2.659m-5.6-.892a2.497 2.497 0 0 1-3.596.063 2.5 2.5 0 0 1 .063-3.597m-7.4-7.4 18.333 18.334"/></g><defs><clipPath id="a"><path fill="#fff" d="M0 0h20v20H0z"/></clipPath></defs></svg>