<svg xmlns="http://www.w3.org/2000/svg" width="58" height="58" fill="none"><path fill="#1E2022" fill-rule="evenodd" d="M29 1.813c-15.355 0-27.792 12.436-27.792 27.791 0 12.298 7.956 22.685 19.003 26.368 1.39.243 1.91-.591 1.91-1.32 0-.66-.034-2.85-.034-5.177-6.983 1.286-8.79-1.702-9.345-3.265-.313-.8-1.668-3.266-2.849-3.926-.972-.521-2.362-1.806-.034-1.841 2.188-.035 3.751 2.015 4.273 2.849 2.5 4.203 6.496 3.022 8.094 2.292.243-1.806.973-3.022 1.771-3.717-6.183-.695-12.645-3.092-12.645-13.722 0-3.022 1.077-5.523 2.849-7.469-.278-.695-1.25-3.543.278-7.365 0 0 2.327-.73 7.643 2.849a25.8 25.8 0 0 1 6.948-.938c2.362 0 4.724.313 6.947.938 5.316-3.613 7.643-2.849 7.643-2.849 1.529 3.822.556 6.67.278 7.365 1.772 1.946 2.849 4.412 2.849 7.47 0 10.664-6.497 13.026-12.68 13.721 1.007.869 1.876 2.536 1.876 5.142 0 3.717-.035 6.704-.035 7.642 0 .73.521 1.598 1.91 1.32 10.978-3.682 18.934-14.104 18.934-26.367C56.792 14.25 44.355 1.813 29 1.813" clip-rule="evenodd"/></svg>