<svg width="17" height="19" viewBox="0 0 17 19" fill="none" xmlns="http://www.w3.org/2000/svg">
<path d="M4.33333 8.65V5.25C4.33333 4.12283 4.77232 3.04183 5.55372 2.2448C6.33512 1.44777 7.39493 1 8.5 1C9.60507 1 10.6649 1.44777 11.4463 2.2448C12.2277 3.04183 12.6667 4.12283 12.6667 5.25V8.65M2.66667 8.65H14.3333C15.2538 8.65 16 9.41112 16 10.35V16.3C16 17.2389 15.2538 18 14.3333 18H2.66667C1.74619 18 1 17.2389 1 16.3V10.35C1 9.41112 1.74619 8.65 2.66667 8.65Z" stroke="#1E1E1E" stroke-width="2" stroke-linecap="round" stroke-linejoin="round"/>
</svg>