<svg width="30" height="30" viewBox="0 0 30 30" fill="none" xmlns="http://www.w3.org/2000/svg">
<path d="M8.75 13.75V8.75C8.75 7.0924 9.40848 5.50269 10.5806 4.33058C11.7527 3.15848 13.3424 2.5 15 2.5C16.6576 2.5 18.2473 3.15848 19.4194 4.33058C20.5915 5.50269 21.25 7.0924 21.25 8.75V13.75M6.25 13.75H23.75C25.1307 13.75 26.25 14.8693 26.25 16.25V25C26.25 26.3807 25.1307 27.5 23.75 27.5H6.25C4.86929 27.5 3.75 26.3807 3.75 25V16.25C3.75 14.8693 4.86929 13.75 6.25 13.75Z" stroke="#1E1E1E" stroke-width="4" stroke-linecap="round" stroke-linejoin="round"/>
</svg>
