<svg xmlns="http://www.w3.org/2000/svg" width="72" height="48" fill="none"><g clip-path="url(#a)"><path stroke="#1E1E1E" stroke-linecap="round" stroke-linejoin="round" stroke-width="4" d="M29 38c-10 3-10-5-14-6m28 12v-7.74a6.74 6.74 0 0 0-1.88-5.22c6.28-.7 12.88-3.08 12.88-14a10.88 10.88 0 0 0-3-7.5A10.14 10.14 0 0 0 50.82 2S48.46 1.3 43 4.96a26.76 26.76 0 0 0-14 0C23.54 1.3 21.18 2 21.18 2A10.14 10.14 0 0 0 21 9.54a10.88 10.88 0 0 0-3 7.56c0 10.84 6.6 13.22 12.88 14A6.74 6.74 0 0 0 29 36.26V44"/></g><g clip-path="url(#b)"><path stroke="#1E1E1E" stroke-linecap="round" stroke-linejoin="round" stroke-width="4" d="M14.313 16h7.437m12.513 0H41.7M33 16a5 5 0 1 1-10 0 5 5 0 0 1 10 0"/></g><g clip-path="url(#c)"><path stroke="#1E1E1E" stroke-linecap="round" stroke-linejoin="round" stroke-width="4" d="M30.313 16h7.437m12.513 0H57.7M49 16a5 5 0 1 1-10 0 5 5 0 0 1 10 0"/></g><path fill="#000" d="M53.586 23.069a.3.3 0 0 1-.145-.123.3.3 0 0 1 .012-.19l.592-1.464a.22.22 0 0 1 .115-.126.25.25 0 0 1 .197-.007l9.791 3.956a.19.19 0 0 1 .119.134.19.19 0 0 1 .014.178l-.592 1.465a.25.25 0 0 1-.142.137.22.22 0 0 1-.17-.004zm-1.559 3.857a.3.3 0 0 1-.144-.123.3.3 0 0 1 .012-.19l.591-1.464a.22.22 0 0 1 .116-.126.25.25 0 0 1 .197-.007l9.79 3.956a.19.19 0 0 1 .12.134.19.19 0 0 1 .013.179l-.591 1.465a.25.25 0 0 1-.142.136.22.22 0 0 1-.17-.004zM18.264 23.01a.3.3 0 0 0 .144-.123.3.3 0 0 0-.011-.19l-.592-1.464a.22.22 0 0 0-.116-.126.25.25 0 0 0-.197-.007l-9.79 3.956a.19.19 0 0 0-.12.134.19.19 0 0 0-.013.179l.592 1.465a.25.25 0 0 0 .141.136q.079.034.171-.004zm1.558 3.857a.3.3 0 0 0 .145-.123.3.3 0 0 0-.012-.19l-.592-1.464a.22.22 0 0 0-.115-.126.25.25 0 0 0-.197-.007L9.26 28.913a.19.19 0 0 0-.119.134.19.19 0 0 0-.014.179l.592 1.465a.25.25 0 0 0 .142.137q.078.033.17-.005z"/><defs><clipPath id="a"><path fill="#fff" d="M11 0h48v48H11z"/></clipPath><clipPath id="b"><path fill="#fff" d="M13 1h30v30H13z"/></clipPath><clipPath id="c"><path fill="#fff" d="M29 1h30v30H29z"/></clipPath></defs></svg>