<svg width="60" height="60" viewBox="0 0 60 60" fill="none" xmlns="http://www.w3.org/2000/svg">
<path fill-rule="evenodd" clip-rule="evenodd" d="M43.6913 46.562C39.5821 50.2488 34.0973 52.5 28.0732 52.5C15.3302 52.5 5 42.4264 5 30C5 17.5736 15.3302 7.5 28.0732 7.5C40.8162 7.5 51.1464 17.5736 51.1464 30C51.1464 34.1555 49.9912 38.0479 47.9768 41.3885L53.7276 45.4736C55.2541 46.5579 55.4323 48.5241 54.1257 49.8652C52.8191 51.2064 50.5225 51.4145 48.996 50.3302L43.6913 46.562Z" fill="black"/>
<path d="M46.5319 30C46.5319 39.9411 38.2677 48 28.0733 48C17.8789 48 9.61475 39.9411 9.61475 30C9.61475 20.0589 17.8789 12 28.0733 12C38.2677 12 46.5319 20.0589 46.5319 30Z" fill="#D6E6F2"/>
<ellipse cx="15.1521" cy="24.15" rx="0.922632" ry="0.9" fill="black"/>
<ellipse cx="19.7669" cy="24.15" rx="0.922632" ry="0.9" fill="black"/>
<ellipse cx="33.8408" cy="42.375" rx="1.15329" ry="1.125" fill="white"/>
<path d="M19.9978 26.8266C18.3333 27.8144 15.8544 27.2523 15.3849 26.8266" stroke="black" stroke-width="0.5" stroke-linecap="round" stroke-linejoin="round"/>
<path d="M40.7499 25.5C42.6855 29.3816 42.6401 36.0643 37.3025 39" stroke="#FEFEFE" stroke-linecap="round"/>
</svg>
