<svg width="1200" height="630" viewBox="0 0 1200 630" fill="none" xmlns="http://www.w3.org/2000/svg">
<path d="M0 8C0 3.58172 3.58172 0 8 0H1192C1196.42 0 1200 3.58172 1200 8V630H0V8Z" fill="#2F3136" fill-opacity="0.05"/>
<path fill-rule="evenodd" clip-rule="evenodd" d="M740.177 492.76C697.889 532.335 641.442 556.5 579.446 556.5C448.308 556.5 342 448.377 342 315C342 181.623 448.308 73.5 579.446 73.5C710.584 73.5 816.892 181.623 816.892 315C816.892 359.6 805.005 401.377 784.277 437.231L843.242 480.918C859.069 492.644 861 513.819 847.554 528.214C834.108 542.608 810.377 544.771 794.55 533.045L740.177 492.76Z" fill="black"/>
<path d="M769.381 315.001C769.381 421.702 684.338 508.201 579.433 508.201C474.527 508.201 389.484 421.702 389.484 315.001C389.484 208.299 474.527 121.801 579.433 121.801C684.338 121.801 769.381 208.299 769.381 315.001Z" fill="#D6E6F2"/>
<ellipse cx="446.462" cy="252.211" rx="9.49263" ry="9.66" fill="black"/>
<ellipse cx="493.966" cy="252.211" rx="9.49263" ry="9.66" fill="black"/>
<ellipse cx="638.794" cy="447.825" rx="11.8664" ry="12.075" fill="white"/>
<path d="M496.335 280.938C479.207 291.539 453.699 285.507 448.868 280.937" stroke="black" stroke-width="7" stroke-linecap="round" stroke-linejoin="round"/>
<path d="M709.943 266.699C729.858 308.362 729.391 380.09 674.472 411.599" stroke="#FEFEFE" stroke-width="12" stroke-linecap="round"/>
</svg>
