<svg width="800" height="420" viewBox="0 0 800 420" fill="none" xmlns="http://www.w3.org/2000/svg">
<path d="M0 8C0 3.58172 3.58172 0 8 0H792C796.418 0 800 3.58172 800 8V420H0V8Z" fill="#2F3136" fill-opacity="0.05"/>
<path fill-rule="evenodd" clip-rule="evenodd" d="M493.451 328.507C465.259 354.89 427.628 371 386.297 371C298.872 371 228 298.918 228 210C228 121.082 298.872 49 386.297 49C473.723 49 544.595 121.082 544.595 210C544.595 239.734 536.67 267.585 522.851 291.488L562.162 320.612C572.713 328.43 574 342.546 565.036 352.143C556.072 361.739 540.252 363.181 529.7 355.364L493.451 328.507Z" fill="black"/>
<path d="M512.921 210C512.921 281.135 456.226 338.8 386.289 338.8C316.351 338.8 259.656 281.135 259.656 210C259.656 138.866 316.351 81.2003 386.289 81.2003C456.226 81.2003 512.921 138.866 512.921 210Z" fill="#D6E6F2"/>
<ellipse cx="297.642" cy="168.14" rx="6.32842" ry="6.44" fill="black"/>
<ellipse cx="329.311" cy="168.14" rx="6.32842" ry="6.44" fill="black"/>
<ellipse cx="425.863" cy="298.55" rx="7.91096" ry="8.05" fill="white"/>
<path d="M330.891 187.292C319.472 194.359 302.467 190.338 299.246 187.292" stroke="black" stroke-width="7" stroke-linecap="round" stroke-linejoin="round"/>
<path d="M473.296 177.8C486.573 205.575 486.261 253.393 449.648 274.4" stroke="#FEFEFE" stroke-width="12" stroke-linecap="round"/>
</svg>
