<svg width="17" height="16" viewBox="0 0 17 16" fill="none" xmlns="http://www.w3.org/2000/svg">
<path d="M14.14 2.35C13.3999 1.60485 12.5196 1.01356 11.5499 0.610231C10.5802 0.206901 9.54024 -0.000494355 8.49 8.84845e-07C4.07 8.84845e-07 0.5 3.58 0.5 8C0.5 12.42 4.07 16 8.49 16C12.22 16 15.33 13.45 16.22 10H14.14C13.7281 11.1695 12.9633 12.1824 11.9513 12.8988C10.9393 13.6153 9.72994 14 8.49 14C5.18 14 2.49 11.31 2.49 8C2.49 4.69 5.18 2 8.49 2C10.15 2 11.63 2.69 12.71 3.78L9.49 7H16.49V8.84845e-07L14.14 2.35Z" fill="#7361DF"/>
</svg>
