<svg width="40" height="40" viewBox="0 0 40 40" fill="none" xmlns="http://www.w3.org/2000/svg">
<circle cx="20" cy="20" r="20" fill="#D9D9D9"/>
<path d="M30.6666 32V29.3333C30.6666 27.9188 30.1047 26.5623 29.1045 25.5621C28.1043 24.5619 26.7477 24 25.3333 24H14.6666C13.2521 24 11.8955 24.5619 10.8953 25.5621C9.89515 26.5623 9.33325 27.9188 9.33325 29.3333V32M25.3333 13.3333C25.3333 16.2789 22.9454 18.6667 19.9999 18.6667C17.0544 18.6667 14.6666 16.2789 14.6666 13.3333C14.6666 10.3878 17.0544 8 19.9999 8C22.9454 8 25.3333 10.3878 25.3333 13.3333Z" stroke="#1E1E1E" stroke-width="2" stroke-linecap="round" stroke-linejoin="round"/>
</svg>
